<?xml version="1.0" encoding="UTF-8"?>
<svg width="50px" height="35px" viewBox="0 0 50 35" version="1.1" xmlns="http://www.w3.org/2000/svg" xmlns:xlink="http://www.w3.org/1999/xlink">
    <!-- Generator: Sketch 53 (72520) - https://sketchapp.com -->
    <title>Avatar</title>
    <desc>Created with Sketch.</desc>
    <g id="Page-1" stroke="none" stroke-width="1" fill="none" fill-rule="evenodd">
        <g id="Artboard-Copy" transform="translate(-50.000000, -50.000000)" fill="#FFFFFF">
            <path d="M88.8822222,70.2783424 C94.2497222,70.2783424 97.7186111,66.7536134 97.7186111,61.2985547 C97.7186111,55.8434959 94.2497222,52.3184846 88.8822222,52.3184846 C83.5144444,52.3184846 80.0458333,55.8434959 80.0458333,61.2985547 C80.0458333,66.7536134 83.5144444,70.2783424 88.8822222,70.2783424 Z M61.1180556,70.2783424 C66.4858333,70.2783424 69.9538889,66.7536134 69.9538889,61.2985547 C69.9538889,55.8434959 66.4858333,52.3184846 61.1180556,52.3184846 C55.7505556,52.3184846 52.2816667,55.8434959 52.2816667,61.2985547 C52.2816667,66.7536134 55.7505556,70.2783424 61.1180556,70.2783424 Z M88.8822222,50 C95.5322222,50 100,54.5404246 100,61.2985547 C100,68.0566847 95.5322222,72.5973916 88.8822222,72.5973916 C82.2322222,72.5973916 77.7641667,68.0566847 77.7641667,61.2985547 L77.7638889,61.2985547 C77.7638889,59.7498871 76.5241667,58.4900068 75,58.4900068 C73.4761111,58.4900068 72.2361111,59.7498871 72.2361111,61.2985547 L72.2361111,72.8051603 L77.7672222,72.8051603 L77.7672222,75.1242096 L69.9544444,75.1242096 L69.9544444,68.5775181 C68.0061111,71.1113934 64.9197222,72.5973916 61.1180556,72.5973916 C54.4677778,72.5973916 50,68.0566847 50,61.2985547 C50,54.5404246 54.4677778,50 61.1180556,50 C66.4033333,50 70.3072222,52.8698058 71.6883333,57.439589 C72.5755556,56.6519874 73.7322222,56.1709575 75,56.1709575 C76.2677778,56.1709575 77.4247222,56.6519874 78.3119444,57.4398713 C79.6930556,52.8698058 83.5969444,50 88.8822222,50 Z M75.0001111,82.6809508 C79.6406667,82.6809508 83.6226111,79.4777552 84.6828889,74.8913166 L86.9045556,75.421748 C85.6003889,81.061145 80.7051111,85 75.0001111,85 C69.2948333,85 64.3995556,81.061145 63.0956667,75.421748 L65.3173333,74.8913166 C66.3776111,79.4777552 70.3592778,82.6809508 75.0001111,82.6809508 Z M61.118,64.9024673 C63.0763333,64.9024673 64.6643889,63.288872 64.6643889,61.2986958 C64.6643889,59.3082374 63.0763333,57.6946421 61.118,57.6946421 C59.1593889,57.6946421 57.5716111,59.3082374 57.5716111,61.2986958 C57.5716111,63.288872 59.1593889,64.9024673 61.118,64.9024673 Z M61.118,56.1852134 C64.3821667,56.1852134 67.2421667,58.230437 68.8405,61.2986958 C67.2421667,64.3666723 64.3821667,66.4118959 61.118,66.4118959 C57.8541111,66.4118959 54.9935556,64.3666723 53.3955,61.2986958 C54.9935556,58.230437 57.8541111,56.1852134 61.118,56.1852134 Z M88.8822222,64.9024673 C90.8405556,64.9024673 92.4283333,63.288872 92.4283333,61.2986958 C92.4283333,59.3082374 90.8405556,57.6946421 88.8822222,57.6946421 C86.9236111,57.6946421 85.3358333,59.3082374 85.3358333,61.2986958 C85.3358333,63.288872 86.9236111,64.9024673 88.8822222,64.9024673 Z M88.8822222,56.1852134 C92.1461111,56.1852134 95.0066667,58.230437 96.6044444,61.2986958 C95.0066667,64.3666723 92.1461111,66.4118959 88.8822222,66.4118959 C85.6180556,66.4118959 82.7577778,64.3666723 81.16,61.2986958 C82.7577778,58.230437 85.6180556,56.1852134 88.8822222,56.1852134 Z" id="Avatar"></path>
        </g>
    </g>
</svg>