<?xml version="1.0" encoding="UTF-8"?>
<svg width="50px" height="50px" viewBox="0 0 50 50" version="1.1" xmlns="http://www.w3.org/2000/svg" xmlns:xlink="http://www.w3.org/1999/xlink">
    <!-- Generator: Sketch 53 (72520) - https://sketchapp.com -->
    <title>Monogram</title>
    <desc>Created with Sketch.</desc>
    <g id="Page-1" stroke="none" stroke-width="1" fill="none" fill-rule="evenodd">
        <g id="Artboard-Copy" transform="translate(-50.000000, -952.000000)" fill="#FFFFFF">
            <path d="M65.0211566,964.905501 C65.0211566,963.775974 65.7323265,962.860367 67.0661518,962.860367 C68.4027518,962.860367 69.1114245,963.775974 69.1114245,964.905501 C69.1114245,966.035027 68.4027518,966.950635 67.0661518,966.950635 C65.7323265,966.950635 65.0211566,966.035027 65.0211566,964.905501 L65.0211566,964.905501 Z M91.8899859,969.559944 L90.3649854,985.356841 L87.605368,985.356841 L85.7899838,977.691866 L83.9745996,985.356841 L81.2149822,985.356841 L79.6897038,969.559944 L82.3542865,969.559944 L83.3074119,980.877864 L84.932171,972.983852 L86.6477966,972.983852 L88.2725557,980.877864 L89.225681,969.559944 L91.8899859,969.559944 Z M59.4499295,985.87643 L61.6547637,984.621209 C62.0481758,985.301109 62.6259042,985.87643 63.7020103,985.87643 C65.3026659,985.87643 66.1688408,984.516631 66.1688408,982.738516 L66.1688408,971.860951 L62.5997324,971.860951 L62.5997324,969.559944 L68.6882934,969.559944 L68.6882934,982.215901 C68.6882934,985.745776 67.0350157,988.177715 63.7281821,988.177715 C61.5236263,988.177715 60.1587952,987.131651 59.4499295,985.87643 L59.4499295,985.87643 Z M76.2341326,999.602257 L76.2341326,954.397743 C89.2999464,954.893267 97.6727786,963.652512 97.6727786,977 C97.6727786,990.347488 89.2999464,999.106733 76.2341326,999.602257 L76.2341326,999.602257 Z M73.7658674,999.602257 C60.6999452,999.106733 52.3272214,990.347488 52.3272214,977 C52.3272214,963.652512 60.6999452,954.893267 73.7658674,954.397743 L73.7658674,999.602257 Z M93.6105556,959.352778 C89.1358333,954.5425 82.7002778,952 75,952 C60.0466667,952 50,962.046667 50,977 C50,991.953333 60.0466667,1002 75,1002 C82.7002778,1002 89.1358333,999.457222 93.6105556,994.646944 C97.7308333,990.217222 100,983.95 100,977 C100,970.05 97.7308333,963.782778 93.6105556,959.352778 L93.6105556,959.352778 Z" id="Monogram"></path>
        </g>
    </g>
</svg>